<svg xmlns="http://www.w3.org/2000/svg" width="150" height="34" viewBox="0 0 150 34">
  <g fill="#34313F">
    <path d="M41.1954262,16.3761468 C43.4719335,16.3761468 45,17.4055046 45.9355509,18.6844037 L45.9355509,0.467889908 C45.9355509,0.124770642 45.5301455,-0.0935779817 45.2494802,0.124770642 L22.7650728,16.5633028 L23.3575884,16.5633028 C25.6964657,16.5633028 26.8814969,18.0605505 26.8814969,19.6825688 C26.8814969,20.9614679 26.2266112,21.8972477 25.3222453,22.3027523 C25.1663202,22.3651376 25.1663202,22.5834862 25.3222453,22.6458716 C26.3513514,23.0825688 27.0997921,24.1743119 27.0997921,25.4844037 C27.0997921,27.3559633 25.8835759,28.8220183 23.5446985,28.8220183 L17.1517672,28.8220183 C17.027027,28.8220183 16.9022869,28.7284404 16.9022869,28.5724771 L16.9022869,20.8366972 L0.155925156,33.0954128 C-0.124740125,33.3449541 -5.2705236e-15,33.7816514 0.374220374,33.7816514 L45.5301455,33.7816514 C45.7484407,33.7816514 45.9043659,33.6256881 45.9043659,33.4073394 L45.9043659,27.2 C44.6881497,28.3229358 43.0977131,29.040367 41.1642412,29.040367 C37.5467775,29.040367 34.6153846,26.5449541 34.6153846,22.7082569 C34.6465696,18.840367 37.6091476,16.3761468 41.1954262,16.3761468 Z M32.2453222,28.6036697 C32.2453222,28.7284404 32.1517672,28.8220183 32.027027,28.8220183 L29.8752599,28.8220183 C29.7505198,28.8220183 29.6569647,28.7284404 29.6569647,28.6036697 L29.6569647,16.7816514 C29.6569647,16.6568807 29.7505198,16.5633028 29.8752599,16.5633028 L32.027027,16.5633028 C32.1517672,16.5633028 32.2453222,16.6568807 32.2453222,16.7816514 L32.2453222,28.6036697 Z"/>
    <path d="M19.7713098 21.4293578L22.7962578 21.4293578C23.6694387 21.4293578 24.2307692 20.9302752 24.2307692 20.1504587 24.2307692 19.4018349 23.6694387 18.8715596 22.7962578 18.8715596L19.6465696 18.8715596C19.5841996 18.8715596 19.5218295 18.933945 19.5218295 18.9963303L19.5218295 21.2110092C19.5218295 21.3357798 19.6465696 21.4293578 19.7713098 21.4293578zM19.7713098 26.5449541L22.9209979 26.5449541C23.8877339 26.5449541 24.4802495 26.0146789 24.4802495 25.1412844 24.4802495 24.3614679 23.9189189 23.7376147 22.9209979 23.7376147L19.7713098 23.7376147C19.6465696 23.7376147 19.5218295 23.8311927 19.5218295 23.987156L19.5218295 26.2954128C19.5218295 26.4201835 19.6465696 26.5449541 19.7713098 26.5449541zM43.970894 20.0880734C43.3783784 19.3082569 42.3804574 18.6844037 41.1954262 18.6844037 38.950104 18.6844037 37.3284823 20.4 37.3284823 22.7082569 37.3284823 25.0165138 38.950104 26.7321101 41.1954262 26.7321101 42.2245322 26.7321101 43.1912682 26.2954128 43.7214137 25.8587156 43.7525988 25.8275229 43.7837838 25.7651376 43.7837838 25.7027523L43.7837838 24.5174312C43.7837838 24.4238532 43.6902287 24.3302752 43.5966736 24.3302752L40.8212058 24.3302752C40.6652807 24.3302752 40.5717256 24.2055046 40.5717256 24.0807339L40.5717256 22.333945C40.5717256 22.1779817 40.6964657 22.0844037 40.8212058 22.0844037L45.966736 22.0844037 45.966736 19.3082569 44.3139293 20.212844C44.1891892 20.2440367 44.033264 20.1816514 43.970894 20.0880734zM47.8690229 22.7082569C47.8690229 18.933945 50.5821206 16.3761468 54.0748441 16.3761468 56.3513514 16.3761468 57.8170478 17.5302752 58.6902287 18.933945 58.7525988 19.0275229 58.7214137 19.1834862 58.5966736 19.2146789L57.1933472 19.9633028C57.0997921 20.0256881 56.975052 19.9944954 56.9438669 19.9009174 56.3513514 18.9651376 55.2598753 18.2788991 54.0748441 18.2788991 51.7359667 18.2788991 49.989605 20.1192661 49.989605 22.7082569 49.989605 25.266055 51.7359667 27.1376147 54.0748441 27.1376147 55.2598753 27.1376147 56.3513514 26.4513761 56.9438669 25.5155963 57.006237 25.4220183 57.0997921 25.3908257 57.1933472 25.453211L58.5966736 26.1706422C58.7214137 26.2330275 58.7525988 26.3577982 58.6902287 26.4825688 57.7858628 27.8862385 56.3201663 29.0715596 54.0748441 29.0715596 50.5821206 29.040367 47.8690229 26.4513761 47.8690229 22.7082569zM59.9064449 22.7082569C59.9064449 19.6513761 61.6528067 17.2807339 64.2723493 16.5944954 68.7318087 15.4091743 72.8170478 19.5889908 71.8503119 24.2366972 71.2577963 27.106422 68.981289 29.0715596 65.956341 29.0715596 62.4012474 29.040367 59.9064449 26.3577982 59.9064449 22.7082569zM69.8544699 22.7082569C69.8544699 20.1816514 68.2952183 18.2788991 65.9251559 18.2788991 63.5239085 18.2788991 61.995842 20.1816514 61.995842 22.7082569 61.995842 25.2348624 63.5239085 27.1376147 65.9251559 27.1376147 68.3264033 27.1376147 69.8544699 25.2036697 69.8544699 22.7082569zM84.6985447 28.666055L84.6985447 19.3394495 80.987526 28.7284404C80.987526 28.759633 80.9251559 28.7908257 80.8939709 28.7908257L80.1143451 28.7908257C80.0831601 28.7908257 80.02079 28.759633 80.02079 28.7284404L76.2785863 19.3394495 76.2785863 28.666055C76.2785863 28.759633 76.2162162 28.8220183 76.1226611 28.8220183L74.2515593 28.8220183C74.1580042 28.8220183 74.0956341 28.759633 74.0956341 28.666055L74.0956341 16.6880734C74.0956341 16.5944954 74.1580042 16.5321101 74.2515593 16.5321101L76.9334719 16.5321101C77.0582121 16.5321101 77.1517672 16.5944954 77.2141372 16.7192661L80.4885655 25.1412844 83.7318087 16.7192661C83.7629938 16.5944954 83.8877339 16.5321101 84.012474 16.5321101L86.6943867 16.5321101C86.7879418 16.5321101 86.8503119 16.5944954 86.8503119 16.6880734L86.8503119 28.666055C86.8503119 28.759633 86.7879418 28.8220183 86.6943867 28.8220183L84.8232848 28.8220183C84.7920998 28.8220183 84.6985447 28.759633 84.6985447 28.666055zM105.904366 28.6036697L105.904366 16.7816514C105.904366 16.6568807 105.997921 16.5633028 106.122661 16.5633028L114.074844 16.5633028C114.199584 16.5633028 114.293139 16.6568807 114.293139 16.7816514L114.293139 18.2165138C114.293139 18.3412844 114.199584 18.4348624 114.074844 18.4348624L108.274428 18.4348624C108.149688 18.4348624 108.056133 18.5284404 108.056133 18.653211L108.056133 21.3669725C108.056133 21.4917431 108.149688 21.5853211 108.274428 21.5853211L113.950104 21.5853211C114.074844 21.5853211 114.168399 21.6788991 114.168399 21.8036697L114.168399 23.2385321C114.168399 23.3633028 114.074844 23.4568807 113.950104 23.4568807L108.274428 23.4568807C108.149688 23.4568807 108.056133 23.5504587 108.056133 23.6752294L108.056133 26.6385321C108.056133 26.7633028 108.149688 26.8568807 108.274428 26.8568807L114.074844 26.8568807C114.199584 26.8568807 114.293139 26.9504587 114.293139 27.0752294L114.293139 28.5100917C114.293139 28.6348624 114.199584 28.7284404 114.074844 28.7284404L106.122661 28.7284404C105.997921 28.8220183 105.904366 28.7284404 105.904366 28.6036697zM124.272349 28.6972477L121.683992 24.3302752C121.652807 24.2678899 121.559252 24.2366972 121.496881 24.2366972L119.68815 24.2366972C119.56341 24.2366972 119.469854 24.3302752 119.469854 24.4550459L119.469854 28.6036697C119.469854 28.7284404 119.376299 28.8220183 119.251559 28.8220183L117.567568 28.8220183C117.442827 28.8220183 117.349272 28.7284404 117.349272 28.6036697L117.349272 16.7816514C117.349272 16.6568807 117.442827 16.5633028 117.567568 16.5633028L122.744283 16.5633028C125.176715 16.5633028 126.767152 18.1229358 126.767152 20.4 126.767152 22.4275229 125.519751 23.5816514 124.147609 23.9247706 123.991684 23.9559633 123.929314 24.1119266 123.991684 24.2678899 124.490644 25.0788991 126.049896 27.5743119 126.642412 28.4788991 126.735967 28.6348624 126.642412 28.8220183 126.455301 28.8220183L124.490644 28.8220183C124.397089 28.8220183 124.334719 28.7908257 124.272349 28.6972477zM124.553015 20.3688073C124.553015 19.1834862 123.679834 18.4348624 122.463617 18.4348624L119.719335 18.4348624C119.594595 18.4348624 119.50104 18.5284404 119.50104 18.653211L119.50104 22.1155963C119.50104 22.240367 119.594595 22.333945 119.719335 22.333945L122.463617 22.333945C123.679834 22.333945 124.553015 21.5853211 124.553015 20.3688073zM141.299376 28.6036697L141.299376 16.7816514C141.299376 16.6568807 141.392931 16.5633028 141.517672 16.5633028L149.50104 16.5633028C149.62578 16.5633028 149.719335 16.6568807 149.719335 16.7816514L149.719335 18.2477064C149.719335 18.3724771 149.62578 18.466055 149.50104 18.466055L143.669439 18.466055C143.544699 18.466055 143.451143 18.559633 143.451143 18.6844037L143.451143 21.4293578C143.451143 21.5541284 143.544699 21.6477064 143.669439 21.6477064L149.345114 21.6477064C149.469854 21.6477064 149.56341 21.7412844 149.56341 21.866055L149.56341 23.3321101C149.56341 23.4568807 149.469854 23.5504587 149.345114 23.5504587L143.669439 23.5504587C143.544699 23.5504587 143.451143 23.6440367 143.451143 23.7688073L143.451143 26.7633028C143.451143 26.8880734 143.544699 26.9816514 143.669439 26.9816514L149.50104 26.9816514C149.62578 26.9816514 149.719335 27.0752294 149.719335 27.2L149.719335 28.666055C149.719335 28.7908257 149.62578 28.8844037 149.50104 28.8844037L141.517672 28.8844037C141.392931 28.8220183 141.299376 28.7284404 141.299376 28.6036697zM128.326403 22.6458716C128.326403 18.8715596 131.039501 16.3137615 134.532225 16.3137615 136.808732 16.3137615 138.274428 17.4678899 139.147609 18.8715596 139.209979 18.9651376 139.178794 19.1211009 139.054054 19.1522936L137.650728 19.9009174C137.557173 19.9633028 137.432432 19.9321101 137.401247 19.8385321 136.808732 18.9027523 135.717256 18.2165138 134.532225 18.2165138 132.193347 18.2165138 130.446985 20.0568807 130.446985 22.6458716 130.446985 25.2036697 132.193347 27.0752294 134.532225 27.0752294 135.717256 27.0752294 136.808732 26.3889908 137.401247 25.453211 137.463617 25.359633 137.557173 25.3284404 137.650728 25.3908257L139.054054 26.1082569C139.178794 26.1706422 139.209979 26.2954128 139.147609 26.4201835 138.243243 27.8238532 136.777547 29.0091743 134.532225 29.0091743 131.039501 28.9779817 128.326403 26.4201835 128.326403 22.6458716zM100.602911 28.666055L100.602911 19.3394495 96.8918919 28.7284404C96.8918919 28.759633 96.8295218 28.7908257 96.7983368 28.7908257L96.018711 28.7908257C95.987526 28.7908257 95.9251559 28.759633 95.9251559 28.7284404L92.1829522 19.3394495 92.1829522 28.666055C92.1829522 28.759633 92.1205821 28.8220183 92.027027 28.8220183L90.1559252 28.8220183C90.0623701 28.8220183 90 28.759633 90 28.666055L90 16.6880734C90 16.5944954 90.0623701 16.5321101 90.1559252 16.5321101L92.8378378 16.5321101C92.962578 16.5321101 93.0561331 16.5944954 93.1185031 16.7192661L96.3929314 25.1412844 99.6361746 16.7192661C99.6673597 16.5944954 99.7920998 16.5321101 99.9168399 16.5321101L102.598753 16.5321101C102.692308 16.5321101 102.754678 16.5944954 102.754678 16.6880734L102.754678 28.666055C102.754678 28.759633 102.692308 28.8220183 102.598753 28.8220183L100.727651 28.8220183C100.665281 28.8220183 100.602911 28.759633 100.602911 28.666055z"/>
  </g>
</svg>
