<svg xmlns="http://www.w3.org/2000/svg" xmlns:xlink="http://www.w3.org/1999/xlink" width="150" height="49" viewBox="0 0 150 49">
  <defs>
    <polygon id="salesforce-logo-a" points="0 .503 67.804 .503 67.804 47.965 0 47.965"/>
    <polygon id="salesforce-logo-c" points="0 48.335 149.705 48.335 149.705 .872 0 .872"/>
  </defs>
  <g fill="none" fill-rule="evenodd">
    <g transform="translate(0 .37)">
      <mask id="salesforce-logo-b" fill="#fff">
        <use xlink:href="#salesforce-logo-a"/>
      </mask>
      <path fill="#00A0DF" d="M28.2142151,5.68229651 C30.3988081,3.40351744 33.4502616,1.99072674 36.8209012,1.99072674 C41.3043314,1.99072674 45.2017151,4.49537791 47.2738081,8.18694767 C49.0825291,7.37677326 51.07875,6.92502907 53.188343,6.92502907 C61.2682849,6.92502907 67.80375,13.5363663 67.80375,21.6721221 C67.80375,29.80875 61.2682849,36.4192151 53.188343,36.4192151 C52.2089826,36.4192151 51.247936,36.3259012 50.3069477,36.1375291 C48.4790407,39.3956686 44.9767151,41.6177616 40.9842733,41.6177616 C39.3072384,41.6177616 37.7252616,41.2227035 36.3124709,40.5450872 C34.447936,44.9134012 30.134564,47.9648547 25.0877616,47.9648547 C19.8325291,47.9648547 15.369157,44.6509012 13.6554942,39.9790988 C12.9011337,40.1299709 12.1293314,40.224157 11.319157,40.224157 C5.06625,40.224157 -0.000610465116,35.1006105 -0.000610465116,28.7918895 C-0.000610465116,24.5543895 2.2790407,20.8619477 5.65055233,18.8849128 C4.95375,17.2846221 4.55781977,15.5134012 4.55781977,13.6488663 C4.55781977,6.37909884 10.4531686,0.502936047 17.7238081,0.502936047 C22.0179942,0.502936047 25.8028779,2.53665698 28.2142151,5.68229651" mask="url(#salesforce-logo-b)"/>
    </g>
    <path fill="#FFF" d="M9.81252907 25.488314C9.77502907 25.601686 9.83084302 25.62 9.85002907 25.639186 9.98171512 25.7333721 10.1142733 25.7900581 10.2459593 25.8659302 10.9427616 26.2234884 11.5828779 26.3368605 12.2796802 26.3368605 13.674157 26.3368605 14.5401453 25.601686 14.5401453 24.4156395L14.5401453 24.3964535C14.5401453 23.3037209 13.5607849 22.8903488 12.6572965 22.6069186L12.5439244 22.5694186C11.8471221 22.3435465 11.2628198 22.1551744 11.2628198 21.7025581L11.2628198 21.6842442C11.2628198 21.289186 11.602064 21.0057558 12.1479942 21.0057558 12.7506105 21.0057558 13.4665988 21.213314 13.918343 21.4583721 13.918343 21.4583721 14.0500291 21.551686 14.1067151 21.4208721 14.1259012 21.345 14.3709593 20.7231977 14.3892733 20.6673837 14.4084593 20.5915116 14.3709593 20.5348256 14.3142733 20.5165116 13.786657 20.1964535 13.0706686 19.9888953 12.3171802 19.9888953L12.1863663 19.9888953C10.9052616 19.9888953 10.0192151 20.7615698 10.0192151 21.8534302L10.0192151 21.8726163C10.0192151 23.0394767 10.9985756 23.417093 11.9221221 23.6804651L12.0729942 23.7188372C12.7506105 23.9255233 13.3165988 24.0947093 13.3165988 24.5656395L13.3165988 24.5848256C13.3165988 25.0182558 12.9389826 25.3374419 12.3372384 25.3374419 12.1104942 25.3374419 11.3570058 25.3374419 10.5477035 24.8290116 10.4526453 24.7731977 10.3968314 24.7356977 10.3209593 24.6781395 10.2834593 24.6598256 10.1892733 24.6031395 10.1325872 24.7356977L9.81252907 25.488314zM30.1730233 25.488314C30.1346512 25.601686 30.1913372 25.62 30.2105233 25.639186 30.3422093 25.7333721 30.4738953 25.7900581 30.6055814 25.8659302 31.3023837 26.2234884 31.9425 26.3368605 32.6401744 26.3368605 34.0337791 26.3368605 34.8997674 25.601686 34.8997674 24.4156395L34.8997674 24.3964535C34.8997674 23.3037209 33.920407 22.8903488 33.0169186 22.6069186L32.9035465 22.5694186C32.2067442 22.3435465 31.6224419 22.1551744 31.6224419 21.7025581L31.6224419 21.6842442C31.6224419 21.289186 31.961686 21.0057558 32.5084884 21.0057558 33.1111047 21.0057558 33.8262209 21.213314 34.2788372 21.4583721 34.2788372 21.4583721 34.4096512 21.551686 34.4672093 21.4208721 34.4855233 21.345 34.7305814 20.7231977 34.7497674 20.6673837 34.7689535 20.5915116 34.7305814 20.5348256 34.6738953 20.5165116 34.1471512 20.1964535 33.4302907 19.9888953 32.6776744 19.9888953L32.5459884 19.9888953C31.2648837 19.9888953 30.3797093 20.7615698 30.3797093 21.8534302L30.3797093 21.8726163C30.3797093 23.0394767 31.3590698 23.417093 32.2817442 23.6804651L32.4326163 23.7188372C33.1111047 23.9255233 33.6762209 24.0947093 33.6762209 24.5656395L33.6762209 24.5848256C33.6762209 25.0182558 33.2994767 25.3374419 32.6968605 25.3374419 32.4709884 25.3374419 31.7175 25.3374419 30.9073256 24.8290116 30.8122674 24.7731977 30.7564535 24.7356977 30.6814535 24.6781395 30.6631395 24.6598256 30.5305814 24.6223256 30.4930814 24.7356977L30.1730233 25.488314zM44.0915407 23.1530233C44.0915407 23.8306395 43.9598547 24.3591279 43.7139244 24.735 43.4697384 25.1117442 43.0921221 25.2809302 42.5836919 25.2809302 42.0752616 25.2809302 41.6993895 25.0934302 41.4543314 24.735 41.2092733 24.3591279 41.0959012 23.8306395 41.0959012 23.1530233 41.0959012 22.475407 41.2284593 21.9477907 41.4543314 21.5902326 41.6993895 21.2126163 42.0569477 21.0434302 42.5836919 21.0434302 43.0921221 21.0434302 43.4697384 21.2126163 43.7139244 21.5902326 43.9598547 21.9477907 44.0915407 22.475407 44.0915407 23.1530233M45.2400872 21.9102907C45.1267151 21.5335465 44.9392151 21.1751163 44.7124709 20.8925581 44.4682849 20.6108721 44.1848547 20.3841279 43.8272965 20.2149419 43.4697384 20.0457558 43.0554942 19.9707558 42.5836919 19.9707558 42.1136337 19.9707558 41.6993895 20.0457558 41.3418314 20.2149419 40.9842733 20.3841279 40.6825291 20.6108721 40.4557849 20.8925581 40.2115988 21.1751163 40.0415407 21.5143605 39.9290407 21.9102907 39.8156686 22.2870349 39.7589826 22.7204651 39.7589826 23.1530233 39.7589826 23.6056395 39.8156686 24.0190116 39.9290407 24.3966279 40.0415407 24.7725 40.2115988 25.1117442 40.4557849 25.4134884 40.700843 25.6960465 41.0025872 25.9219186 41.3418314 26.0911047 41.6993895 26.2602907 42.1136337 26.3361628 42.5836919 26.3361628 43.0554942 26.3361628 43.4697384 26.2602907 43.8272965 26.0911047 44.1848547 25.9219186 44.4865988 25.6960465 44.7124709 25.4134884 44.9575291 25.1309302 45.1267151 24.791686 45.2400872 24.3966279 45.3525872 24.0190116 45.4101453 23.5864535 45.4101453 23.1530233 45.4101453 22.700407 45.3525872 22.2870349 45.2400872 21.9102907M54.7704942 25.0930814C54.7329942 24.9797093 54.6196221 25.0180814 54.6196221 25.0180814 54.450436 25.0747674 54.2803779 25.1488953 54.0736919 25.1680814 53.8844477 25.2064535 53.6594477 25.2064535 53.4335756 25.2064535 52.8675872 25.2064535 52.415843 25.0372674 52.1149709 24.7163372 51.7949128 24.3779651 51.6056686 23.8494767 51.6257267 23.1343605 51.6257267 22.4750581 51.7949128 21.985814 52.0765988 21.6090698 52.359157 21.2314535 52.7925872 21.0430814 53.3577035 21.0430814 53.8286337 21.0430814 54.2053779 21.1006395 54.5821221 21.2131395 54.5821221 21.2131395 54.6763081 21.2515116 54.7138081 21.1381395 54.8079942 20.8555814 54.8838663 20.6480233 54.9963663 20.3471512 55.0338663 20.252093 54.9588663 20.214593 54.9213663 20.214593 54.7704942 20.1587791 54.412936 20.0637209 54.1486919 20.0262209 53.9045058 19.9887209 53.6027616 19.970407 53.2827035 19.970407 52.7925872 19.970407 52.359157 20.045407 51.9832849 20.214593 51.6056686 20.3846512 51.3047965 20.6105233 51.0414244 20.8930814 50.7963663 21.1756395 50.6079942 21.5140116 50.4763081 21.910814 50.3446221 22.286686 50.287064 22.7201163 50.287064 23.1526744 50.287064 24.1137209 50.5513081 24.8863953 51.0597384 25.4698256 51.5681686 26.0349419 52.340843 26.336686 53.3577035 26.336686 53.9603198 26.336686 54.5638081 26.223314 54.9963663 26.0349419 54.9963663 26.0349419 55.0722384 25.9974419 55.0530523 25.9032558L54.7704942 25.0930814zM56.8042151 22.5126453C56.8609012 22.1359012 56.9550872 21.8350291 57.1242733 21.5899709 57.3693314 21.2132267 57.7277616 21.0248547 58.2545058 21.0248547 58.762936 21.0248547 59.1021802 21.2315407 59.3472384 21.5899709 59.5164244 21.8350291 59.5731105 22.1550872 59.6106105 22.5126453L56.8042151 22.5126453zM60.721657 21.684157C60.628343 21.3074128 60.3832849 20.9315407 60.2132267 20.7614826 59.9690407 20.4972384 59.7047965 20.2905523 59.4597384 20.1963663 59.1405523 20.0638081 58.762936 19.9704942 58.3303779 19.9704942 57.8402616 19.9704942 57.3885174 20.0454942 57.0309593 20.2146802 56.6725291 20.3847384 56.371657 20.6106105 56.1265988 20.9114826 55.8815407 21.1940407 55.7123547 21.5515988 55.5989826 21.9292151 55.4856105 22.3242733 55.4297965 22.7393895 55.4297965 23.1902616 55.4297965 23.6428779 55.4856105 24.0571221 55.5989826 24.4530523 55.7123547 24.8289244 55.9190407 25.1681686 56.1640988 25.4507267 56.4274709 25.7332849 56.7484012 25.959157 57.1434593 26.1100291 57.5393895 26.2609012 58.0103198 26.3367733 58.574564 26.3367733 59.7047965 26.3367733 60.3082849 26.0725291 60.5524709 25.940843 60.5899709 25.921657 60.646657 25.865843 60.5899709 25.7524709L60.3265988 25.0373547C60.2890988 24.9239826 60.1757267 24.9614826 60.1757267 24.9614826 59.8931686 25.0748547 59.4981105 25.2623547 58.55625 25.2440407 57.9527616 25.2440407 57.5018895 25.0556686 57.2193314 24.7731105 56.9359012 24.4905523 56.7859012 24.0571221 56.7667151 23.4736919L60.703343 23.4736919C60.703343 23.4736919 60.7975291 23.4736919 60.8167151 23.3795058 60.8350291 23.3411337 60.9667151 22.5693314 60.721657 21.684157zM25.3322093 22.5126453C25.3880233 22.1359012 25.4830814 21.8350291 25.6522674 21.5899709 25.8964535 21.2132267 26.2557558 21.0248547 26.7825 21.0248547 27.2909302 21.0248547 27.6301744 21.2315407 27.8752326 21.5899709 28.0444186 21.8350291 28.1011047 22.1550872 28.1386047 22.5126453L25.3322093 22.5126453zM29.2496512 21.684157C29.1554651 21.3074128 28.9112791 20.9315407 28.7412209 20.7614826 28.4961628 20.4972384 28.2327907 20.2905523 27.9877326 20.1963663 27.6676744 20.0638081 27.2909302 19.9704942 26.8575 19.9704942 26.3673837 19.9704942 25.9165116 20.0454942 25.5580814 20.2146802 25.2005233 20.3847384 24.8987791 20.6106105 24.654593 20.9114826 24.4086628 21.1940407 24.2394767 21.5515988 24.1269767 21.9292151 24.0136047 22.3242733 23.9577907 22.7393895 23.9577907 23.1902616 23.9577907 23.6428779 24.0136047 24.0571221 24.1269767 24.4530523 24.2394767 24.8289244 24.4470349 25.1681686 24.692093 25.4507267 24.9554651 25.7332849 25.2763953 25.959157 25.6714535 26.1100291 26.0665116 26.2609012 26.5374419 26.3367733 27.1025581 26.3367733 28.2327907 26.3367733 28.835407 26.0725291 29.0804651 25.940843 29.1179651 25.921657 29.1554651 25.865843 29.1179651 25.7524709L28.854593 25.0373547C28.8162209 24.9239826 28.7037209 24.9614826 28.7037209 24.9614826 28.4211628 25.0748547 28.0252326 25.2623547 27.0842442 25.2440407 26.4807558 25.2440407 26.0290116 25.0556686 25.7473256 24.7731105 25.4638953 24.4905523 25.3138953 24.0571221 25.2947093 23.4736919L29.2313372 23.4736919C29.2313372 23.4736919 29.3246512 23.4736919 29.3447093 23.3795058 29.3630233 23.3411337 29.4938372 22.5693314 29.2496512 21.684157zM16.8378488 25.0744186C16.6869767 24.9427326 16.6686628 24.9235465 16.6119767 24.8485465 16.5361047 24.7351744 16.4986047 24.5476744 16.4986047 24.3392442 16.4986047 24.0008721 16.6119767 23.7375 16.8561628 23.5866279 16.8561628 23.5866279 17.195407 23.2848837 18.0055814 23.3040698 18.5706977 23.3040698 19.0791279 23.3982558 19.0791279 23.3982558L19.0791279 25.1877907C19.0791279 25.1877907 18.5706977 25.3002907 18.0238953 25.3186047 17.195407 25.3569767 16.8378488 25.0744186 16.8378488 25.0744186M18.4015116 22.3247093C18.2506395 22.3055233 18.0430814 22.3055233 17.7797093 22.3055233 17.4404651 22.3055233 17.120407 22.3430233 16.8195349 22.4380814 16.5177907 22.5122093 16.2352326 22.6447674 15.9901744 22.8139535 15.7451163 22.9840116 15.5567442 23.2098837 15.4250581 23.4549419 15.2933721 23.718314 15.2183721 24.019186 15.2183721 24.3593023 15.2183721 24.6976744 15.2750581 25.0186047 15.4058721 25.2627907 15.5192442 25.5078488 15.7076163 25.7145349 15.9143023 25.884593 16.1410465 26.0354651 16.4044186 26.1671512 16.7244767 26.2229651 17.0262209 26.2979651 17.3837791 26.3363372 17.7613953 26.3363372 18.1564535 26.3363372 18.5706977 26.2979651 18.9474419 26.2421512 19.324186 26.1854651 19.8134302 26.0729651 19.9451163 26.0537791 20.0776744 26.0162791 20.2285465 25.977907 20.2285465 25.977907 20.3218605 25.959593 20.3218605 25.847093 20.3218605 25.847093L20.3218605 22.2497093C20.3218605 21.4587209 20.1151744 20.8744186 19.7009302 20.5159884 19.286686 20.1584302 18.6831977 19.9700581 17.8930814 19.9700581 17.5913372 19.9700581 17.120407 20.0075581 16.8378488 20.0642442 16.8378488 20.0642442 15.9718605 20.2334302 15.6326163 20.5159884 15.6326163 20.5159884 15.5567442 20.5726744 15.5951163 20.6668605L15.8768023 21.4212209C15.9143023 21.5145349 16.0093605 21.4770349 16.0093605 21.4770349 16.0093605 21.4770349 16.0468605 21.4587209 16.0651744 21.4395349 16.8195349 21.0244186 17.7797093 21.0436047 17.7797093 21.0436047 18.2131395 21.0436047 18.5323256 21.1377907 18.7590698 21.2886628 18.9657558 21.4587209 19.0791279 21.702907 19.0791279 22.2296512L19.0791279 22.4005814C18.7215698 22.3430233 18.4015116 22.3247093 18.4015116 22.3247093M50.0991279 20.2906395C50.1375 20.1964535 50.0616279 20.1589535 50.043314 20.1397674 49.9674419 20.1214535 49.6473837 20.0455814 49.3840116 20.0263953 48.8938953 19.9888953 48.6113372 20.0830814 48.3671512 20.1964535 48.1212209 20.3089535 47.8587209 20.4790116 47.7078488 20.6856977L47.7078488 20.2147674C47.7078488 20.1589535 47.6694767 20.1022674 47.5944767 20.1022674L46.5959302 20.1022674C46.5401163 20.1022674 46.4834302 20.1589535 46.4834302 20.2147674L46.4834302 26.0726163C46.4834302 26.1284302 46.5401163 26.1859884 46.5959302 26.1859884L47.6319767 26.1859884C47.6886628 26.1859884 47.7453488 26.1284302 47.7453488 26.0726163L47.7453488 23.1345349C47.7453488 22.7394767 47.7828488 22.3435465 47.8770349 22.0984884 47.9712209 21.8534302 48.0837209 21.6650581 48.2162791 21.514186 48.3671512 21.3825 48.5180233 21.27 48.7055233 21.2316279 48.8938953 21.175814 49.0822674 21.1566279 49.2331395 21.1566279 49.4398256 21.1566279 49.6665698 21.213314 49.6665698 21.213314 49.7415698 21.213314 49.7790698 21.175814 49.8174419 21.100814 49.8732558 20.9307558 50.0616279 20.4031395 50.0991279 20.2906395"/>
    <path fill="#FFF" d="M40.3997093 17.5781686C40.2680233 17.5406686 40.1555233 17.5223547 40.0046512 17.4848547 39.8537791 17.4647965 39.665407 17.4464826 39.4761628 17.4464826 38.7610465 17.4464826 38.2151163 17.6540407 37.819186 18.0490988 37.4241279 18.444157 37.1598837 19.0476453 37.0281977 19.8386337L36.9715116 20.1028779 36.0872093 20.1028779C36.0872093 20.1028779 35.9738372 20.1028779 35.9546512 20.2145058L35.8037791 21.0246802C35.7854651 21.1005523 35.8229651 21.1572384 35.9363372 21.1572384L36.8023256 21.1572384 35.9171512 26.0723547C35.8412791 26.4674128 35.7671512 26.788343 35.6912791 27.0334012 35.597093 27.2775872 35.5212209 27.4668314 35.4087209 27.5976453 35.3145349 27.7302035 35.2203488 27.8243895 35.0502907 27.8802035 34.9194767 27.9177035 34.7686047 27.9552035 34.5793605 27.9552035 34.4860465 27.9552035 34.3534884 27.9368895 34.2601744 27.9177035 34.1659884 27.8993895 34.1093023 27.8802035 34.0526163 27.8435756 34.0526163 27.8435756 33.9584302 27.8060756 33.9017442 27.8993895 33.8642442 27.9752616 33.6383721 28.6153779 33.6200581 28.6903779 33.6008721 28.7653779 33.6383721 28.822936 33.6758721 28.84125 33.7892442 28.87875 33.8825581 28.91625 34.0334302 28.9546221 34.2601744 29.010436 34.4293605 29.010436 34.6177326 29.010436 34.9752907 29.010436 35.3145349 28.9546221 35.5787791 28.860436 35.8604651 28.7653779 36.0872093 28.5961919 36.3122093 28.3520058 36.5380814 28.1060756 36.6889535 27.8435756 36.8206395 27.4659593 36.9531977 27.1084012 37.0665698 26.656657 37.1598837 26.1473547L38.0459302 21.1380523 39.3453488 21.1380523C39.3453488 21.1380523 39.4578488 21.1380523 39.4761628 21.0246802L39.6270349 20.2145058C39.6462209 20.1403779 39.6087209 20.0828198 39.4962209 20.0828198L38.2343023 20.0828198C38.2343023 20.0453198 38.2901163 19.6127616 38.4409884 19.1976453 38.4968023 19.0284593 38.6101744 18.8775872 38.7235465 18.7834012 38.8177326 18.6892151 38.9302326 18.613343 39.0436047 18.5767151 39.1761628 18.5392151 39.3069767 18.5200291 39.4578488 18.5200291 39.5712209 18.5200291 39.684593 18.5392151 39.777907 18.5575291 39.8912791 18.5767151 39.947093 18.5950291 39.9854651 18.613343 40.1171512 18.6517151 40.1354651 18.613343 40.1555233 18.5575291L40.4555233 17.7290407C40.5130814 17.6339826 40.4372093 17.5964826 40.3997093 17.5781686M22.8462209 26.0725291C22.8462209 26.128343 22.8087209 26.1859012 22.7328488 26.1859012L21.6976744 26.1859012C21.6401163 26.1859012 21.5843023 26.128343 21.5843023 26.0725291L21.5843023 17.6917151C21.5843023 17.634157 21.6218023 17.578343 21.6976744 17.578343L22.7328488 17.578343C22.7895349 17.578343 22.8462209 17.634157 22.8462209 17.6917151L22.8462209 26.0725291z"/>
    <path fill="#7B868C" d="M75.6666279 12.0790116C76.2134302 12.0790116 76.7218605 12.1540116 77.2111047 12.3231977 77.7012209 12.4932558 78.1346512 12.7191279 78.5297093 13.001686L77.945407 13.9993605C77.2861047 13.5101163 76.5334884 13.2650581 75.6666279 13.2650581 74.7439535 13.2650581 74.0480233 13.5668023 73.557907 14.1685465 73.0869767 14.7720349 72.8419186 15.5822093 72.8419186 16.5990698 72.8419186 17.5967442 73.0869767 18.4069186 73.557907 19.0095349 74.0279651 19.6313372 74.7256395 19.9330814 75.648314 19.9330814 76.4201163 19.9330814 77.1927907 19.6880233 77.9654651 19.197907L78.4922093 20.2147674C77.6253488 20.8365698 76.6459884 21.1566279 75.535814 21.1566279 74.5564535 21.1566279 73.764593 20.9307558 73.1427907 20.4973256 72.5218605 20.0638953 72.0701163 19.4996512 71.7875581 18.8028488 71.505 18.1051744 71.3724419 17.3708721 71.3724419 16.5798837 71.3724419 15.2054651 71.7500581 14.0944186 72.5026744 13.2842442 73.2936628 12.4932558 74.3480233 12.0790116 75.6666279 12.0790116M80.5261919 16.6174709C80.5261919 17.6535174 80.752936 18.4828779 81.2229942 19.1046802 81.6939244 19.7247384 82.4099128 20.0456686 83.3509012 20.0456686 84.3119477 20.0456686 85.027936 19.7247384 85.4988663 19.1046802 85.9689244 18.4828779 86.2139826 17.6535174 86.2139826 16.6174709 86.2139826 15.5822965 85.9689244 14.7721221 85.4988663 14.1686337 85.027936 13.5668895 84.3119477 13.2468314 83.3509012 13.2468314 82.3915988 13.2468314 81.6747384 13.5477035 81.2229942 14.1686337 80.77125 14.7721221 80.5261919 15.5822965 80.5261919 16.6174709M87.7026453 16.6174709C87.7026453 17.5035174 87.5325872 18.3128198 87.1942151 18.9913081 86.8549709 19.6881105 86.3465407 20.2331686 85.7055523 20.6107849 85.0471221 20.9875291 84.2744477 21.1942151 83.3709593 21.1942151 82.4849128 21.1942151 81.6939244 21.005843 81.052936 20.6107849 80.3945058 20.2148547 79.9043895 19.6881105 79.5651453 18.9913081 79.2267733 18.2945058 79.0567151 17.5035174 79.0567151 16.6174709 79.0567151 15.2430523 79.4334593 14.1311337 80.1869477 13.3218314 80.9413081 12.511657 82.0139826 12.0974128 83.3709593 12.0974128 84.2927616 12.0974128 85.065436 12.2857849 85.7247384 12.6625291 86.3648547 13.0384012 86.8732849 13.5668895 87.2125291 14.2445058 87.5325872 14.9229942 87.7026453 15.7139826 87.7026453 16.6174709M89.3407849 14.2635174C89.3407849 13.6234012 89.3032849 12.9824128 89.2274128 12.3231105L90.6027035 12.3231105C90.6593895 12.6248547 90.6968895 13.0390988 90.7152035 13.5484012L90.7535756 13.5484012C91.0169477 13.1149709 91.4128779 12.7757267 91.9029942 12.4931686 92.3922384 12.2297965 92.9564826 12.0789244 93.5974709 12.0789244 94.3326453 12.0789244 94.9343895 12.2297965 95.3870058 12.5489826 95.857936 12.8690407 96.1963081 13.284157 96.4038663 13.8300872L96.4413663 13.8300872C96.7422384 13.284157 97.1381686 12.8690407 97.6465988 12.5489826 98.1550291 12.2481105 98.7585174 12.0789244 99.4736337 12.0789244 100.18875 12.0789244 100.773052 12.2297965 101.243983 12.5489826 101.714913 12.8690407 102.073343 13.2649709 102.298343 13.7734012 102.525087 14.2818314 102.637587 14.8277616 102.637587 15.43125L102.637587 20.9498547 101.187297 20.9498547 101.187297 15.6196221C101.187297 14.9603198 101.01811 14.3952035 100.69718 13.9434593 100.377122 13.490843 99.8503779 13.2649709 99.1535756 13.2649709 98.6259593 13.2649709 98.1925291 13.3975291 97.816657 13.6792151 97.4399128 13.9434593 97.1573547 14.3193314 96.9689826 14.7719477 96.7797384 15.224564 96.6864244 15.7138081 96.6864244 16.2222384L96.6864244 20.9498547 95.2544477 20.9498547 95.2544477 15.600436C95.2544477 14.9411337 95.0852616 14.3952035 94.7652035 13.9434593 94.4451453 13.490843 93.9175291 13.2649709 93.2207267 13.2649709 92.4672384 13.2649709 91.8838081 13.528343 91.4311919 14.0568314 90.9977616 14.5835756 90.7727616 15.224564 90.7727616 15.9963663L90.7727616 20.9498547 89.3407849 20.9498547 89.3407849 14.2635174zM104.72843 14.2635174C104.72843 13.6234012 104.69093 12.9824128 104.615058 12.3231105L105.990349 12.3231105C106.047035 12.6248547 106.084535 13.0390988 106.102849 13.5484012L106.141221 13.5484012C106.404593 13.1149709 106.800523 12.7757267 107.29064 12.4931686 107.779884 12.2297965 108.344128 12.0789244 108.985116 12.0789244 109.720291 12.0789244 110.322035 12.2297965 110.774651 12.5489826 111.245581 12.8690407 111.583953 13.284157 111.791512 13.8300872L111.829012 13.8300872C112.129884 13.284157 112.525814 12.8690407 113.034244 12.5489826 113.542674 12.2481105 114.146163 12.0789244 114.861279 12.0789244 115.576395 12.0789244 116.160698 12.2297965 116.650814 12.5489826 117.121744 12.8690407 117.479302 13.2649709 117.705174 13.7734012 117.931919 14.2818314 118.044419 14.8277616 118.044419 15.43125L118.044419 20.9498547 116.613314 20.9498547 116.613314 15.6196221C116.613314 14.9603198 116.444128 14.3952035 116.123198 13.9434593 115.80314 13.490843 115.275523 13.2649709 114.578721 13.2649709 114.051105 13.2649709 113.617674 13.3975291 113.241802 13.6792151 112.865058 13.9434593 112.5825 14.3193314 112.394128 14.7719477 112.205756 15.224564 112.11157 15.7138081 112.11157 16.2222384L112.11157 20.9498547 110.661279 20.9498547 110.661279 15.600436C110.661279 14.9411337 110.491221 14.3952035 110.171163 13.9434593 109.851105 13.490843 109.32436 13.2649709 108.627558 13.2649709 107.873198 13.2649709 107.29064 13.528343 106.838023 14.0568314 106.404593 14.5835756 106.178721 15.224564 106.178721 15.9963663L106.178721 20.9498547 104.746744 20.9498547 104.746744 14.2635174 104.72843 14.2635174zM126.162035 16.0340407C126.143721 15.1671802 125.916977 14.489564 125.502733 13.9619477 125.088488 13.4352035 124.485872 13.1892733 123.694884 13.1892733 122.884709 13.1892733 122.262907 13.4535174 121.829477 13.9994477 121.396919 14.54625 121.15186 15.2238663 121.11436 16.0340407L126.162035 16.0340407zM127.51814 17.1642733L121.11436 17.1642733C121.170174 18.0494477 121.434419 18.7453779 121.905349 19.2738663 122.376279 19.8006105 123.054767 20.0456686 123.93907 20.0456686 124.467558 20.0456686 124.91843 19.9706686 125.333547 19.8381105 125.746919 19.7064244 126.162035 19.4805523 126.576279 19.1979942L127.216395 20.1398547C126.726279 20.4974128 126.217849 20.761657 125.671919 20.930843 125.12686 21.1192151 124.523372 21.1942151 123.845756 21.1942151 122.527151 21.1942151 121.491105 20.7799709 120.756802 19.9331686 120.021628 19.1046802 119.644884 17.9744477 119.644884 16.5982849 119.644884 15.7139826 119.795756 14.9229942 120.115814 14.2445058 120.436744 13.5668895 120.888488 13.0384012 121.491105 12.6625291 122.093721 12.2857849 122.828895 12.0974128 123.675698 12.0974128 124.937616 12.0974128 125.879477 12.511657 126.557093 13.3218314 127.234709 14.1311337 127.55564 15.2238663 127.55564 16.5607849 127.55564 16.8250291 127.55564 17.0134012 127.51814 17.1642733zM129.193866 14.2635174C129.193866 13.6234012 129.156366 12.9824128 129.081366 12.3231105L130.455785 12.3231105C130.513343 12.6998547 130.550843 13.1707849 130.569157 13.6992733L130.606657 13.6992733C131.096773 12.6248547 132.001134 12.0789244 133.318866 12.0789244 133.413052 12.0789244 133.582238 12.0981105 133.808983 12.1356105L133.714797 13.378343C133.601424 13.359157 133.431366 13.3399709 133.18718 13.3399709 132.358692 13.3399709 131.73689 13.6234012 131.284273 14.1693314 130.851715 14.7161337 130.625843 15.449564 130.625843 16.3164244L130.625843 20.9498547 129.193866 20.9498547 129.193866 14.2635174zM138.423227 12.0790116C138.969157 12.0790116 139.477587 12.1540116 139.967703 12.3231977 140.456948 12.4932558 140.890378 12.7191279 141.285436 13.001686L140.702006 13.9993605C140.042703 13.5101163 139.289215 13.2650581 138.404913 13.2650581 137.481366 13.2650581 136.784564 13.5668023 136.29532 14.1685465 135.82439 14.7720349 135.578459 15.5822093 135.578459 16.5990698 135.578459 17.5967442 135.82439 18.4069186 136.29532 19.0095349 136.76625 19.6313372 137.46218 19.9330814 138.385727 19.9330814 139.157529 19.9330814 139.930203 19.6880233 140.702006 19.197907L141.229622 20.2147674C140.363634 20.8365698 139.384273 21.1566279 138.272355 21.1566279 137.292994 21.1566279 136.502006 20.9307558 135.880203 20.4973256 135.259273 20.0638953 134.807529 19.4996512 134.524099 18.8028488 134.241541 18.1051744 134.109855 17.3708721 134.109855 16.5798837 134.109855 15.2054651 134.486599 14.0944186 135.240087 13.2842442 136.031076 12.4932558 137.086308 12.0790116 138.423227 12.0790116M148.29218 16.0340407C148.273866 15.1671802 148.047994 14.489564 147.632878 13.9619477 147.219506 13.4352035 146.616017 13.1892733 145.825029 13.1892733 145.014855 13.1892733 144.393052 13.4535174 143.960494 13.9994477 143.527064 14.54625 143.282878 15.2238663 143.244506 16.0340407L148.29218 16.0340407zM149.667471 17.1642733L143.26282 17.1642733C143.320378 18.0494477 143.58375 18.7453779 144.05468 19.2738663 144.52561 19.8006105 145.203227 20.0456686 146.089273 20.0456686 146.616017 20.0456686 147.068634 19.9706686 147.482006 19.8381105 147.897122 19.7064244 148.310494 19.4805523 148.72561 19.1979942L149.365727 20.1398547C148.876483 20.4974128 148.368052 20.761657 147.82125 20.930843 147.27532 21.1192151 146.672703 21.1942151 145.994215 21.1942151 144.676483 21.1942151 143.640436 20.7799709 142.905262 19.9331686 142.170959 19.1046802 141.794215 17.9744477 141.794215 16.5982849 141.794215 15.7139826 141.945087 14.9229942 142.265145 14.2445058 142.585203 13.5668895 143.03782 13.0384012 143.640436 12.6625291 144.24218 12.2857849 144.977355 12.0974128 145.825029 12.0974128 147.086948 12.0974128 148.028808 12.511657 148.707297 13.3218314 149.384913 14.1311337 149.704971 15.2238663 149.704971 16.5607849 149.704971 16.8250291 149.686657 17.0134012 149.667471 17.1642733zM75.68625 28.0125872C76.2321802 28.0125872 76.7406105 28.0875872 77.2307267 28.2567733 77.7199709 28.4268314 78.1534012 28.6527035 78.5484593 28.9352616L77.9650291 29.932936C77.3057267 29.4436919 76.5522384 29.1986337 75.667936 29.1986337 74.7443895 29.1986337 74.0475872 29.5003779 73.558343 30.1021221 73.0874128 30.7056105 72.8414826 31.5157849 72.8414826 32.5326453 72.8414826 33.5303198 73.0874128 34.3404942 73.558343 34.9431105 74.0284012 35.5649128 74.7252035 35.866657 75.6478779 35.866657 76.4205523 35.866657 77.1932267 35.6215988 77.9650291 35.1314826L78.4926453 36.148343C77.6257849 36.7701453 76.6464244 37.0902035 75.5353779 37.0902035 74.5560174 37.0902035 73.7650291 36.8643314 73.1432267 36.4309012 72.5214244 35.9974709 72.0705523 35.4332267 71.7871221 34.7364244 71.504564 34.03875 71.3728779 33.3044477 71.3728779 32.5134593 71.3728779 31.1390407 71.7496221 30.0279942 72.5031105 29.2178198 73.2940988 28.4268314 74.3484593 28.0125872 75.68625 28.0125872"/>
    <mask id="salesforce-logo-d" fill="#fff">
      <use xlink:href="#salesforce-logo-c"/>
    </mask>
    <polygon fill="#7B868C" points="80.187 36.883 81.638 36.883 81.638 24.886 80.187 24.886" mask="url(#salesforce-logo-d)"/>
    <path fill="#7B868C" d="M84.8398256 32.5510465C84.8398256 33.587093 85.0656977 34.4164535 85.5366279 35.0382558 86.0075581 35.658314 86.7226744 35.9792442 87.6645349 35.9792442 88.6255814 35.9792442 89.3406977 35.658314 89.8116279 35.0382558 90.2825581 34.4164535 90.5267442 33.587093 90.5267442 32.5510465 90.5267442 31.5158721 90.2825581 30.7056977 89.8116279 30.1022093 89.3406977 29.5004651 88.6255814 29.180407 87.6645349 29.180407 86.7043605 29.180407 85.9883721 29.4812791 85.5366279 30.1022093 85.0656977 30.7056977 84.8398256 31.5158721 84.8398256 32.5510465M91.9962209 32.5510465C91.9962209 33.437093 91.8270349 34.2463953 91.4877907 34.9248837 91.1485465 35.621686 90.6401163 36.1676163 90 36.5443605 89.3406977 36.9211047 88.5680233 37.1277907 87.6645349 37.1277907 86.7793605 37.1277907 85.9883721 36.9394186 85.3482558 36.5443605 84.6889535 36.1484302 84.1997093 35.621686 83.8604651 34.9248837 83.5203488 34.2280814 83.3511628 33.437093 83.3511628 32.5510465 83.3511628 31.1766279 83.7287791 30.0647093 84.4813953 29.255407 85.2348837 28.4452326 86.3084302 28.0309884 87.6645349 28.0309884 88.5872093 28.0309884 89.3598837 28.2193605 90.018314 28.5961047 90.6593023 28.9728488 91.1677326 29.5004651 91.5069767 30.1780814 91.8270349 30.8565698 91.9962209 31.6475581 91.9962209 32.5510465M93.352936 33.5500291L93.352936 28.2572965 94.8023547 28.2572965 94.8023547 33.3424709C94.8023547 34.1334593 94.9715407 34.7735756 95.311657 35.2445058 95.6509012 35.7346221 96.1968314 35.9604942 96.9119477 35.9604942 97.702936 35.9604942 98.3439244 35.65875 98.8148547 35.0753198 99.2857849 34.4727035 99.5299709 33.7384012 99.5299709 32.8715407L99.5299709 28.2572965 100.980262 28.2572965 100.980262 34.9619477C100.980262 35.58375 101.017762 36.2238663 101.093634 36.8831686L99.718343 36.8831686C99.661657 36.5256105 99.624157 36.0738663 99.605843 35.5078779L99.5674709 35.5078779C98.9465407 36.5822965 97.9488663 37.1090407 96.5918895 37.1090407 95.518343 37.1090407 94.7090407 36.7697965 94.1622384 36.1113663 93.6346221 35.4703779 93.352936 34.6043895 93.352936 33.5500291M109.249012 33.1727616L109.249012 30.4614244C108.909767 30.0279942 108.533023 29.707064 108.100465 29.5003779 107.685349 29.2936919 107.196105 29.1803198 106.630988 29.1803198 105.8025 29.1803198 105.143198 29.5003779 104.653081 30.1221802 104.163837 30.7614244 103.937093 31.5715988 103.937093 32.5893314 103.937093 33.6253779 104.163837 34.4538663 104.633895 35.0564826 105.104826 35.6590988 105.726628 35.9599709 106.555116 35.9599709 107.365291 35.9599709 108.024593 35.6974709 108.513837 35.1689826 109.003953 34.6605523 109.249012 33.982936 109.249012 33.1727616M110.793488 36.8835174L109.455698 36.8835174C109.379826 36.3934012 109.342326 35.9599709 109.342326 35.6024128L109.304826 35.6024128C108.664709 36.6192733 107.629535 37.1277035 106.215872 37.1277035 104.992326 37.1277035 104.069651 36.7143314 103.410349 35.866657 102.751047 35.0381686 102.430988 33.945436 102.430988 32.5893314 102.430988 31.7224709 102.600174 30.9506686 102.920233 30.2529942 103.240291 29.557064 103.711221 29.0111337 104.294651 28.6143314 104.89814 28.2192733 105.594942 28.0125872 106.404244 28.0125872 107.553663 28.0125872 108.495523 28.3893314 109.21064 29.1227616L109.21064 24.8669477 110.66093 24.8669477 110.66093 34.9431105C110.680116 35.5840988 110.718488 36.2242151 110.793488 36.8835174" mask="url(#salesforce-logo-d)"/>
  </g>
</svg>
