<svg xmlns="http://www.w3.org/2000/svg" width="150" height="31" viewBox="0 0 150 31">
  <g fill="none">
    <path fill="#9B5C8F" d="M4.69730113,0 L45.8956544,0 C48.5028832,0 50.6134969,2.12743545 50.6134969,4.75544394 L50.6134969,20.6069238 C50.6134969,23.2349322 48.5028832,25.3623677 45.8956544,25.3623677 L31.1213579,25.3623677 L33.1492025,30.3680982 L24.2308247,25.3623677 L4.71799342,25.3623677 C2.11076464,25.3623677 0.00015085955,23.2349322 0.00015085955,20.6069238 L0.00015085955,4.75544394 C-0.0205414324,2.14829266 2.09007234,0 4.69730113,0 Z"/>
    <path fill="#FFF" d="M3.10638488 4.29205762C3.39378784 3.89531365 3.82489227 3.68650104 4.39969818 3.64473852 5.44666609 3.56121347 6.04200079 4.06236375 6.18570227 5.14818935 6.82209453 9.51237302 7.52007313 13.2083563 8.25910931 16.2361392L12.7549127 7.52865317C13.1654883 6.73516523 13.6787079 6.31754 14.2945714 6.27577747 15.1978378 6.21313369 15.7521149 6.79780901 15.9779316 8.02980345 16.4911511 10.8070112 17.1480722 13.1665938 17.9281659 15.1711949 18.4619142 9.86735446 19.3651807 6.0460836 20.6379652 3.68650104 20.9458969 3.10182571 21.3975301 2.80948805 21.9928648 2.76772553 22.4650268 2.72596301 22.8961313 2.87213184 23.2861781 3.18535076 23.676225 3.49856968 23.8815128 3.89531365 23.9225704 4.37558267 23.9430992 4.75144538 23.8815128 5.0646643 23.7172826 5.37788323 22.9166601 6.88133406 22.259739 9.40796671 21.7259907 12.9160187 21.2127711 16.3196643 21.0280121 18.9715845 21.1511848 20.8717793 21.1922423 21.3938109 21.1101272 21.8531986 20.9048394 22.2499426 20.658494 22.7093303 20.2889759 22.9599055 19.8168139 23.001668 19.2830655 23.0434305 18.7287884 22.7928554 18.1950401 22.2290613 16.2858633 20.2453415 14.7667334 17.2802023 13.6581791 13.3336439 12.3238083 16.0064454 11.3384267 18.0110465 10.7020344 19.3474472 9.49083626 21.7070298 8.46439713 22.9181429 7.60218826 22.9807867 7.04791113 23.0225493 6.57574913 22.5422802 6.16517348 21.5399797 5.11820557 18.8045344 3.98912253 13.5215752 2.77792436 5.69110215 2.71633801 5.14818935 2.81898192 4.66792033 3.10638488 4.29205762zM46.8540944 7.13924422C46.1050947 5.82862877 45.0024006 5.03809881 43.5252067 4.72604751 43.1299013 4.64283383 42.7554014 4.60122699 42.4017071 4.60122699 40.4043745 4.60122699 38.7815417 5.64139799 37.5124033 7.72173998 36.4305148 9.49003067 35.8895706 11.4455521 35.8895706 13.5883044 35.8895706 15.1901677 36.2224593 16.5631934 36.8882369 17.7073815 37.6372366 19.017997 38.7399306 19.808527 40.2171246 20.1205783 40.61243 20.2037919 40.9869298 20.2453988 41.3406242 20.2453988 43.3587623 20.2453988 44.9815951 19.2052278 46.229928 17.1248858 47.3118165 15.3357917 47.8527607 13.3802702 47.8527607 11.2375179 47.8527607 9.61485119 47.519872 8.2626289 46.8540944 7.13924422zM44.2325954 12.9017915C43.9413177 14.2748173 43.421179 15.2941848 42.6513737 15.9806977 42.0480128 16.5215866 41.486263 16.7504242 40.9661243 16.6464071 40.4667911 16.54239 40.0506802 16.1055182 39.738597 15.2941848 39.4889304 14.6492788 39.3640971 14.0043728 39.3640971 13.4010736 39.3640971 12.8809881 39.4057082 12.3609026 39.5097359 11.882424 39.6969859 11.0294837 40.0506802 10.197347 40.61243 9.406817 41.2990131 8.38744942 42.0272073 7.97138102 42.776207 8.11700496 43.2755401 8.22102206 43.6916511 8.65789388 44.0037343 9.46922725 44.2534009 10.1141333 44.3782342 10.7590393 44.3782342 11.3623385 44.3782342 11.9032274 44.3158176 12.4233129 44.2325954 12.9017915zM34.8909042 7.13924422C34.1419045 5.82862877 33.0184049 5.03809881 31.5620165 4.72604751 31.1667111 4.64283383 30.7922113 4.60122699 30.4385169 4.60122699 28.4411843 4.60122699 26.8183516 5.64139799 25.5492131 7.72173998 24.4673246 9.49003067 23.9263804 11.4455521 23.9263804 13.5883044 23.9263804 15.1901677 24.2592691 16.5631934 24.9250467 17.7073815 25.6740464 19.017997 26.7767405 19.808527 28.2539344 20.1205783 28.6492398 20.2037919 29.0237397 20.2453988 29.377434 20.2453988 31.3955722 20.2453988 33.0184049 19.2052278 34.2667378 17.1248858 35.3486263 15.3357917 35.8895706 13.3802702 35.8895706 11.2375179 35.8895706 9.61485119 35.5566818 8.2626289 34.8909042 7.13924422zM32.2694052 12.9017915C31.9781275 14.2748173 31.4579888 15.2941848 30.6881835 15.9806977 30.0848226 16.5215866 29.5230728 16.7504242 29.0029341 16.6464071 28.503601 16.54239 28.08749 16.1055182 27.7754068 15.2941848 27.5257402 14.6492788 27.4009069 14.0043728 27.4009069 13.4010736 27.4009069 12.8809881 27.442518 12.3609026 27.5465457 11.882424 27.7337957 11.0294837 28.08749 10.197347 28.6492398 9.406817 29.3358229 8.38744942 30.0640171 7.97138102 30.8130168 8.11700496 31.31235 8.22102206 31.7284609 8.65789388 32.0405441 9.46922725 32.2902107 10.1141333 32.415044 10.7590393 32.415044 11.3623385 32.415044 11.9032274 32.3734329 12.4233129 32.2694052 12.9017915z"/>
    <path fill="#000" d="M56.3651302,7.55448315 C54.9777936,8.90982365 54.2944785,10.6348025 54.2944785,12.7294196 C54.2944785,14.967785 54.9777936,16.7954411 56.3444237,18.1713171 C57.7110538,19.5471931 59.4918143,20.2453988 61.7074116,20.2453988 C62.3493136,20.2453988 63.0740417,20.1427215 63.8608894,19.9168314 L63.8608894,16.5900865 C63.1361613,16.7954411 62.5149658,16.8981184 61.9765963,16.8981184 C60.8791509,16.8981184 60.0094772,16.5284801 59.3468687,15.8097389 C58.6842601,15.0704623 58.3529559,14.0847601 58.3529559,12.8320969 C58.3529559,11.6615756 58.6842601,10.6964089 59.3261622,9.95713222 C59.9887707,9.19732012 60.7963249,8.8276818 61.7902377,8.8276818 C62.4321397,8.8276818 63.1154548,8.93035911 63.8608894,9.13571374 L63.8608894,5.80896886 C63.1775743,5.6241497 62.4114332,5.54200785 61.603879,5.54200785 C59.4918143,5.52147239 57.7524669,6.19914264 56.3651302,7.55448315 Z M70.735453,5.52147239 C68.8304534,5.52147239 67.3395842,6.15807172 66.2628453,7.41073491 C65.1861065,8.66339811 64.6684435,10.4294479 64.6684435,12.6883487 C64.6684435,15.1320687 65.206813,17.0007957 66.2628453,18.2945299 C67.3188777,19.588264 68.8718665,20.2453988 70.9011051,20.2453988 C72.8682243,20.2453988 74.3798,19.588264 75.4358324,18.2945299 C76.4918647,17.0007957 77.0302342,15.1731396 77.0302342,12.8320969 C77.0302342,10.4910542 76.4918647,8.68393357 75.4151258,7.41073491 C74.3176804,6.15807172 72.7646917,5.52147239 70.735453,5.52147239 Z M72.3712678,16.1999127 C71.9985505,16.7749057 71.4394746,17.0624021 70.735453,17.0624021 C70.0728445,17.0624021 69.5758881,16.7749057 69.2238773,16.1999127 C68.8718665,15.6249198 68.7062143,14.4749339 68.7062143,12.7294196 C68.7062143,10.0392741 69.3895294,8.70446903 70.776866,8.70446903 C72.2263222,8.70446903 72.9717568,10.0598095 72.9717568,12.791026 C72.9510503,14.4749339 72.7439852,15.6249198 72.3712678,16.1999127 Z M87.2592536,5.91164617 L86.5138189,9.05357189 C86.3274603,9.85445491 86.1411016,10.6758734 85.9754495,11.5178273 L85.5613192,13.6945863 C85.1678953,11.5178273 84.6295259,8.93035911 83.9462108,5.91164617 L79.1422989,5.91164617 L77.3408319,19.8962959 L80.9437659,19.8962959 L81.9169722,10.2651642 L84.3810477,19.8962959 L86.9486558,19.8962959 L89.3091987,10.2856996 L90.3238181,19.8962959 L94.0924042,19.8962959 L92.1874046,5.91164617 L87.2592536,5.91164617 Z M104.507782,5.91164617 L103.762348,9.05357189 C103.575989,9.85445491 103.38963,10.6758734 103.223978,11.5178273 L102.809848,13.6945863 C102.416424,11.5178273 101.878055,8.93035911 101.194739,5.91164617 L96.3908275,5.91164617 L94.5893606,19.8962959 L98.1922945,19.8962959 L99.1655008,10.2651642 L101.629576,19.8962959 L104.197184,19.8962959 L106.537021,10.2856996 L107.55164,19.8962959 L111.320226,19.8962959 L109.415227,5.91164617 L104.507782,5.91164617 Z M116.227671,14.3722566 L119.602833,14.3722566 L119.602833,11.4767564 L116.227671,11.4767564 L116.227671,8.90982365 L120.120496,8.90982365 L120.120496,5.93218164 L112.417672,5.93218164 L112.417672,19.9168314 L120.141203,19.9168314 L120.141203,16.9391894 L116.227671,16.9391894 L116.227671,14.3722566 Z M130.867178,12.1544267 C131.260602,11.5178273 131.467667,10.8606926 131.467667,10.1830223 C131.467667,8.86875273 130.950004,7.82144416 129.914679,7.06163206 C128.879353,6.30181996 127.450603,5.91164617 125.669843,5.91164617 L121.238648,5.91164617 L121.238648,19.8962959 L125.048647,19.8962959 L125.048647,13.5303026 L125.110767,13.5303026 L128.196038,19.8962959 L132.213102,19.8962959 L129.169244,13.591909 C129.893972,13.2633416 130.473754,12.791026 130.867178,12.1544267 Z M125.027941,11.9285366 L125.027941,8.60179172 C125.939027,8.62232718 126.580929,8.76607542 126.974353,9.05357189 C127.367777,9.34106836 127.554136,9.79284853 127.554136,10.4499833 C127.554136,11.41515 126.705168,11.9080011 125.027941,11.9285366 Z M133.703971,7.55448315 C132.316635,8.90982365 131.633319,10.6348025 131.633319,12.7294196 C131.633319,14.967785 132.316635,16.7954411 133.683265,18.1713171 C135.049895,19.5471931 136.830655,20.2453988 139.046253,20.2453988 C139.688155,20.2453988 140.412883,20.1427215 141.19973,19.9168314 L141.19973,16.5900865 C140.475002,16.7954411 139.853807,16.8981184 139.315437,16.8981184 C138.217992,16.8981184 137.348318,16.5284801 136.68571,15.8097389 C136.023101,15.0704623 135.691797,14.0847601 135.691797,12.8320969 C135.691797,11.6615756 136.023101,10.6964089 136.665003,9.95713222 C137.327612,9.19732012 138.135166,8.8276818 139.129079,8.8276818 C139.770981,8.8276818 140.454296,8.93035911 141.19973,9.13571374 L141.19973,5.80896886 C140.516415,5.6241497 139.750274,5.54200785 138.94272,5.54200785 C136.851362,5.52147239 135.091308,6.19914264 133.703971,7.55448315 Z M146.065762,16.8981184 L146.065762,14.3517211 L149.440924,14.3517211 L149.440924,11.456221 L146.065762,11.456221 L146.065762,8.88928819 L149.979293,8.88928819 L149.979293,5.91164617 L142.276469,5.91164617 L142.276469,19.8962959 L150,19.8962959 L150,16.9186539 L146.065762,16.9186539 L146.065762,16.8981184 Z"/>
  </g>
</svg>
